<svg id="Group_8" data-name="Group 8" xmlns="http://www.w3.org/2000/svg" width="12" height="12" viewBox="0 0 12 12">
  <g id="checkbox" transform="translate(3.021 4)">
    <path id="Path_87" data-name="Path 87" d="M5.728,9.8,4.32,8.395a.359.359,0,0,0-.508,0h0a.359.359,0,0,0,0,.508L5.22,10.31a.718.718,0,0,0,1.016,0L9.559,6.987a.359.359,0,0,0,0-.508h0a.359.359,0,0,0-.508,0Z" transform="translate(-3.707 -6.374)" fill="#38d12d"/>
  </g>
  <path id="Path_90" data-name="Path 90" d="M6,0a6,6,0,1,0,6,6A6,6,0,0,0,6,0ZM6,11a5,5,0,1,1,5-5A5,5,0,0,1,6,11Z" transform="translate(0 0)" fill="#38d12d"/>
</svg>
