<svg id="Group_7" data-name="Group 7" xmlns="http://www.w3.org/2000/svg" width="12" height="12" viewBox="0 0 12 12">
  <g id="cross-circle_1_" data-name="cross-circle (1)" transform="translate(0 0)">
    <path id="Path_84" data-name="Path 84" d="M11.854,7.854a.5.5,0,0,0-.707,0L9.854,9.147,8.56,7.854a.5.5,0,1,0-.707.707L9.146,9.854,7.853,11.147a.5.5,0,1,0,.707.707l1.293-1.293,1.293,1.293a.5.5,0,1,0,.707-.707L10.56,9.854l1.293-1.293A.5.5,0,0,0,11.854,7.854Z" transform="translate(-3.853 -3.854)" fill="#dc1818"/>
    <path id="Path_85" data-name="Path 85" d="M6,0a6,6,0,1,0,6,6A6,6,0,0,0,6,0ZM6,11a5,5,0,1,1,5-5A5,5,0,0,1,6,11Z" transform="translate(0 0)" fill="#dc1818"/>
  </g>
</svg>
