<svg id="Group_9" data-name="Group 9" xmlns="http://www.w3.org/2000/svg" width="12" height="12" viewBox="0 0 12 12">
  <g id="eye_1_" data-name="eye (1)" transform="translate(2.469 3.25)">
    <path id="Path_88" data-name="Path 88" d="M6.845,4.645a3.9,3.9,0,0,0-3.317-1.99A3.9,3.9,0,0,0,.211,4.645a1.444,1.444,0,0,0,0,1.519,3.9,3.9,0,0,0,3.317,1.99,3.9,3.9,0,0,0,3.317-1.99A1.444,1.444,0,0,0,6.845,4.645Zm-.5,1.211a3.329,3.329,0,0,1-2.815,1.71A3.329,3.329,0,0,1,.713,5.856a.859.859,0,0,1,0-.9,3.329,3.329,0,0,1,2.815-1.71,3.327,3.327,0,0,1,2.815,1.71A.859.859,0,0,1,6.343,5.856Z" transform="translate(0.004 -2.655)" fill="#1a84d9"/>
    <path id="Path_89" data-name="Path 89" d="M8.471,7A1.471,1.471,0,1,0,9.943,8.471,1.471,1.471,0,0,0,8.471,7Zm0,2.354a.883.883,0,1,1,.883-.883A.883.883,0,0,1,8.471,9.354Z" transform="translate(-4.939 -5.721)" fill="#1a84d9"/>
  </g>
  <path id="Path_91" data-name="Path 91" d="M6,0a6,6,0,1,0,6,6A6,6,0,0,0,6,0ZM6,11a5,5,0,1,1,5-5A5,5,0,0,1,6,11Z" transform="translate(0 0)" fill="#1a84d9"/>
</svg>
